<svg enable-background="new 0 0 100 100" viewBox="0 0 100 100" xmlns="http://www.w3.org/2000/svg"><g clip-rule="evenodd" fill-rule="evenodd"><path d="m50.5 98.9c-27.1 0-49-21.9-49-48.9s21.9-48.9 49-48.9 49 21.9 49 48.9-22 48.9-49 48.9z" fill="#f60"/><g fill="#fff"><path d="m37.4 40.8c0-1.2.2-2.3.5-3.3s.8-1.8 1.5-2.4c.7-.7 1.6-1.2 2.7-1.5s2.4-.5 4-.5 2.9.2 4 .5 2 .8 2.7 1.5 1.2 1.5 1.5 2.4c.3 1 .5 2.1.5 3.3s-.2 2.4-.5 3.3c-.3 1-.8 1.8-1.5 2.4-.7.7-1.6 1.1-2.7 1.5-1.1.3-2.4.5-4 .5s-2.9-.2-4-.5-2-.8-2.7-1.5-1.2-1.5-1.5-2.4-.5-2-.5-3.3m12.8.1c0-.6-.1-1.2-.2-1.7s-.3-1-.6-1.3c-.3-.4-.7-.7-1.2-.9s-1.2-.3-2-.3-1.5.1-2 .3-.9.5-1.2.9-.5.8-.6 1.3-.2 1.1-.2 1.7.1 1.2.2 1.7.3 1 .6 1.3c.3.4.7.7 1.2.9s1.2.3 2 .3 1.5-.1 2-.3.9-.5 1.2-.9.5-.8.6-1.3.2-1.1.2-1.7"/><path d="m56.3 40.8c0-1.2.2-2.3.5-3.3s.8-1.8 1.5-2.4c.7-.7 1.6-1.2 2.7-1.5s2.4-.5 4-.5 2.9.2 4 .5 2 .8 2.7 1.5 1.2 1.5 1.5 2.4c.3 1 .5 2.1.5 3.3s-.2 2.4-.5 3.3c-.3 1-.8 1.8-1.5 2.4-.7.7-1.6 1.2-2.7 1.5s-2.4.5-4 .5-2.9-.2-4-.5-2-.8-2.7-1.5-1.2-1.5-1.5-2.4-.5-2-.5-3.3m12.8.1c0-.6-.1-1.2-.2-1.7s-.3-1-.6-1.3c-.3-.4-.8-.7-1.3-.9s-1.2-.3-2-.3-1.5.1-2 .3-.9.5-1.2.9-.5.8-.6 1.3-.2 1.1-.2 1.7.1 1.2.2 1.7.3 1 .6 1.3c.3.4.7.7 1.2.9s1.2.3 2 .3 1.5-.1 2-.3.9-.5 1.3-.9c.3-.4.5-.8.6-1.3s.2-1.1.2-1.7"/><path d="m80.7 44.6c.1.1.2.3.2.4v2.7c0 .2-.1.3-.2.5-.1.1-.3.2-.5.2h-1.2-2.9c-.2 0-.4-.1-.6-.2s-.2-.3-.2-.5v-1.5-16.5-.7c0-.2.1-.3.2-.5.1-.1.3-.2.5-.2h3.1c.2 0 .4.1.5.2s.2.3.2.5v2.1 12 1.3h.4c.2.1.4.1.5.2"/><path d="m46.6 67.5c.1.1.2.3.2.5v2.9c0 .2-.1.4-.2.5s-.3.2-.5.2h-1.3-3c-.2 0-.4-.1-.6-.2-.2-.2-.3-.3-.3-.6v-1.6-17.3-.8c0-.2.1-.3.2-.5.1-.1.3-.2.5-.2h3.2c.2 0 .4.1.5.2s.2.3.2.5v.6 14.1 1.4h.4c.4.1.6.2.7.3"/><path d="m36.3 45.4-1.2-1.5c-.1-.2-.3-.3-.5-.3s-.4 0-.5.2c-.3.2-1.5 1.3-4.7 1.3-2.3 0-5.1-1.2-5.1-4.2 0-2.9 2.9-4.2 5.1-4.2 3 0 4.4 1.1 4.7 1.3.2.1.4.2.5.2.2 0 .3-.1.5-.3l1.2-1.5c.2-.2.2-.3.3-.4.4-.5-.4-1.1-.4-1.1-.5-.4-.9-.5-1.3-.8-.5-.2-1-.4-1.5-.6-.5-.1-1.1-.3-1.7-.3-.6-.1-1.3-.1-2.2-.1-1.9 0-3.4.2-4.5.7-1.2.4-5 2.2-5 6.9 0 4.9 3.8 6.8 5 7.3 1.2.4 2.7.6 4.5.6.8 0 1.6 0 2.2-.1s1.2-.2 1.7-.3 1-.3 1.5-.6c.5-.2.8-.4 1.3-.8 0 0 .9-.6.4-1.1-.1-.1-.1-.1-.3-.3"/><path d="m20.9 70.9c0 .2.1.4.2.5s.3.2.5.2c0 0 3.7 0 3.8-.1.1 0 .2-.1.2-.3v-.5c.6.2 1.3.4 2.1.6s1.7.3 2.6.3c1.6 0 3-.2 4.1-.5 1.1-.4 2.1-.9 2.8-1.5.7-.7 1.2-1.5 1.6-2.5.3-1 .5-2.2.5-3.5s-.2-2.5-.5-3.5-.9-1.8-1.6-2.5-1.7-1.2-2.8-1.6c-1.2-.4-2.5-.5-4.2-.5-1 0-1.8.1-2.6.2s-1.4.3-2 .5v-3.3-1.6s0 0 0-.1c0-.2-.1-.3-.2-.5-.1-.1-.3-.2-.5-.2h-.1-3.2c-.2 0-.4.1-.5.2s-.2.3-.2.5zm13.5-5.4c-.1.5-.4 1-.7 1.4s-.8.7-1.3.9-1.2.3-2.1.3c-.8 0-1.5-.1-2.1-.3-.5-.2-1-.5-1.3-.9s-.5-.8-.7-1.4c-.1-.5-.2-1.1-.2-1.8s.1-1.3.2-1.8.4-1 .7-1.4.8-.7 1.3-.9 1.2-.3 2.1-.3c.8 0 1.5.1 2.1.3.5.2 1 .5 1.3.9s.5.9.7 1.4c.1.5.2 1.1.2 1.8s-.1 1.3-.2 1.8z"/><path d="m63 55.8c.1.1.2.3.2.5v.5 2.2 4.8c0 1.4-.1 2.5-.3 3.5s-.6 1.8-1.2 2.4-1.3 1.1-2.3 1.4-2.2.4-3.7.4-2.8-.1-3.8-.4-1.8-.7-2.3-1.4c-.6-.6-1-1.4-1.2-2.4s-.3-2.1-.3-3.5v-4.8-1.7-1.1c0-.2.1-.3.2-.5.1-.1.3-.2.5-.2h.4 2.1.3c.2 0 .4.1.5.2.2.1.2.3.2.5v2.8 4.9 1.5c0 .5.2.9.4 1.2s.5.6 1 .8c.4.2 1 .3 1.8.3s1.4-.1 1.8-.3.7-.4 1-.8c.2-.3.3-.7.4-1.2 0-.5.1-1 .1-1.5v-4.9-2.8c0-.2.1-.3.2-.5.1-.1.3-.2.5-.2h.4 1.4 1.1c.3 0 .5.1.6.3"/><path d="m69.2 62c.1-.5.2-.9.3-1.3.2-.4.4-.7.7-1s.7-.5 1.2-.6c.6-.1 1.2-.1 1.9-.1s1.3.1 1.8.2c.4.2.8.4 1 .6.2.3.4.6.5 1s.2.8.2 1.2h-4.8c-.4 0-.4.4-.4.4v2.3s0 .3.4.3h9.1c0-.9 0-1.7 0-2.5s-.1-1.6-.2-2.3-.4-1.4-.7-1.9c-.3-.6-.8-1.1-1.3-1.5-.6-.4-1.3-.7-2.2-1-.9-.2-1.9-.3-3.2-.3-1.8 0-3.3.2-4.5.7-1.2.4-2 1-2.7 1.8-.7.7-1.1 1.6-1.3 2.6s-.4 2-.4 3.1.1 2.1.4 3.1c.2 1 .7 1.8 1.3 2.6.7.6 1.6 1.2 2.7 1.6 1.2.4 2.7.6 4.5.6.8 0 1.5 0 2.2-.1.6-.1 1.2-.2 1.7-.3s1-.3 1.5-.6c.5-.2.8-.4 1.3-.8 0 0 .9-.6.4-1.1-.1-.1-.1-.1-.3-.4l-1.2-1.5c-.1-.2-.3-.3-.4-.3-.2 0-.4 0-.5.2-.3.2-.6.4-.9.6s-.6.3-.9.4-.7.2-1.2.3c-.4.1-1 .1-1.7.1-.8 0-1.4-.1-1.9-.2s-.9-.4-1.3-.6c-.3-.3-.6-.6-.8-1s-.3-.8-.4-1.3c-.1-1.3.1-3 .1-3"/></g></g></svg>